<?xml version="1.0" encoding="UTF-8" standalone="no"?>
<!-- Created with Inkscape (http://www.inkscape.org/) -->

<svg
   version="1.1"
   id="svg1"
   width="185.45703"
   height="210.73975"
   viewBox="0 0 185.45703 210.73975"
   sodipodi:docname="LogoVC1.png"
   inkscape:export-filename="LogoVC1.svg"
   inkscape:export-xdpi="88.382744"
   inkscape:export-ydpi="88.382744"
   xmlns:inkscape="http://www.inkscape.org/namespaces/inkscape"
   xmlns:sodipodi="http://sodipodi.sourceforge.net/DTD/sodipodi-0.dtd"
   xmlns="http://www.w3.org/2000/svg"
   xmlns:svg="http://www.w3.org/2000/svg">
  <defs
     id="defs1" />
  <sodipodi:namedview
     id="namedview1"
     pagecolor="#ffffff"
     bordercolor="#000000"
     borderopacity="0.25"
     inkscape:showpageshadow="2"
     inkscape:pageopacity="0.0"
     inkscape:pagecheckerboard="0"
     inkscape:deskcolor="#d1d1d1" />
  <g
     inkscape:groupmode="layer"
     inkscape:label="Image"
     id="g1"
     transform="translate(-242.88687,-4.0908418)">
    <path
       style="fill:#f0ab08;fill-opacity:1;stroke-width:0.571893"
       d="m 394.28728,23.217346 c -0.55039,-0.89055 3.12502,-5.98204 7.47096,-10.34939 7.17706,-7.2124101 17.96476,-10.5814501 25.01295,-7.8116501 1.38706,0.5451 1.57271,0.91807 1.57271,3.15978 0,1.39795 -0.25442,3.0171101 -0.56537,3.5981301 -0.7152,1.33636 -4.35555,2.69232 -9.22266,3.43527 -5.46126,0.83364 -12.11084,3.13703 -17.46491,6.04979 -4.79896,2.61076 -6.14164,2.98928 -6.80368,1.91807 z"
       id="path13-1" />
    <path
       style="fill:#f0ab08;fill-opacity:1;stroke-width:0.571893"
       d="m 332.26591,213.54682 c -7.46417,-2.5541 -12.77569,-6.54339 -19.50778,-14.65157 -2.61193,-3.14583 -5.32331,-6.79349 -6.02528,-8.10591 -0.70197,-1.31242 -1.85154,-2.99851 -2.55458,-3.74687 -1.07541,-1.14472 -1.12631,-1.36065 -0.32074,-1.36065 0.52664,0 0.95753,0.25412 0.95753,0.56471 0,0.3106 1.09374,1.24059 2.43054,2.06664 1.3368,0.82606 3.58863,2.59574 5.00406,3.93263 8.52719,8.05398 19.79024,13.55858 31.07109,15.18541 4.32278,0.62339 6.10194,1.35176 6.10194,2.49807 0,1.26304 -9.20549,4.93239 -12.29569,4.90111 -0.62908,-0.006 -2.81657,-0.58397 -4.86109,-1.28357 z"
       id="path14-3" />
    <path
       style="display:inline;fill:#ffffff;fill-opacity:1;stroke-width:0.571893"
       d="m 346.43821,192.92305 c -7.47432,-3.15395 -12.65173,-7.79038 -18.34854,-16.43132 -2.20591,-3.34592 -4.26493,-5.78801 -5.45263,-6.46706 -1.83212,-1.04748 -2.06582,-1.05303 -5.85247,-0.13908 -3.16181,0.76315 -4.655,0.83839 -7.52791,0.37936 -12.43883,-1.98751 -19.18427,-6.55875 -27.0405,-18.32481 -4.5508,-6.8156 -9.1848,-15.55457 -25.01865,-47.18115 -12.92747,-25.821364 -15.02767,-30.489284 -14.12955,-31.404494 1.62015,-1.65096 17.84658,-0.74453 24.72964,1.38143 6.99171,2.15952 14.52471,8.21793 18.84225,15.15385 2.73121,4.387552 15.80588,29.306394 25.3033,48.225184 5.26219,10.48225 10.31752,19.91272 11.23406,20.95661 3.73426,4.25309 6.99518,3.04429 14.44183,-5.35348 5.35632,-6.04045 8.35457,-10.6015 11.25856,-17.12688 2.69615,-6.05837 14.18518,-36.22093 19.42251,-50.990634 1.50574,-4.2463 3.89822,-10.55142 5.31661,-14.01137 1.41839,-3.45995 3.38405,-8.8941 4.36813,-12.07588 0.98408,-3.18178 3.35902,-8.9688 5.27764,-12.86005 2.75571,-5.58897 4.1732,-7.74507 6.74875,-10.26524 6.07638,-5.94573 17.47592,-10.34208 27.1689,-10.47794 4.94913,-0.0694 5.16636,-0.0197 5.34268,1.22244 0.27628,1.94628 -3.02724,13.25745 -11.64774,39.88153 -4.27745,13.21072 -8.38999,26.335662 -9.13899,29.166532 -0.74899,2.83087 -2.01104,6.691142 -2.80453,8.578392 -0.7935,1.88725 -1.44883,3.83664 -1.4563,4.332 -0.007,0.49535 -0.66743,2.81152 -1.46658,5.14704 -0.79916,2.33551 -2.98181,9.26474 -4.85033,15.39829 -7.12002,23.37189 -11.4149,36.51354 -13.73737,42.03412 -4.32628,10.28374 -10.00298,17.5423 -16.19035,20.70196 -4.31346,2.20271 -10.34521,2.42725 -14.79242,0.55065 z m 12.35904,-3.15178 c 5.99276,-2.65089 11.53877,-9.93573 15.95724,-20.96029 2.39209,-5.9685 9.19379,-26.73456 12.118,-36.99704 0.74459,-2.61312 3.43406,-11.3136 5.97659,-19.3344 2.54255,-8.02079 5.68007,-17.928842 6.97229,-22.017872 4.99459,-15.804732 7.51394,-23.587982 8.79295,-27.164912 0.73105,-2.04451 2.13631,-6.61661 3.12277,-10.1602 0.98647,-3.5436 2.68171,-8.89642 3.76721,-11.89515 2.2505,-6.2171 2.53846,-9.8541 0.89775,-11.33892 -1.01627,-0.91972 -1.4044,-0.89068 -7.00568,0.52409 -8.11159,2.04882 -12.56533,4.34784 -17.14581,8.85069 -4.36669,4.29268 -5.3255,6.00573 -9.08435,16.23061 -1.51702,4.12661 -4.16432,11.23454 -5.88288,15.79538 -4.18439,11.10483 -10.74206,29.015194 -12.56351,34.313574 -2.99885,8.72327 -3.51441,10.14454 -6.01613,16.58489 -3.89461,10.02618 -9.48043,21.35029 -13.52478,27.41874 -3.30795,4.96349 -5.53523,7.3626 -13.68222,14.73772 -3.54616,3.21017 -3.58619,5.05469 -0.23159,10.66987 5.37107,8.99051 15.65493,16.52176 21.97494,16.09306 1.62772,-0.11042 4.12847,-0.71784 5.55721,-1.34984 z m -41.95899,-22.95809 c 1.86909,-0.98576 2.25488,-1.64184 2.26536,-3.85253 0.0132,-2.78928 -0.82887,-4.60319 -15.60328,-33.61027 -18.73226,-36.777682 -19.7064,-38.476672 -25.26904,-44.071694 -3.95157,-3.97457 -5.26445,-4.90016 -9.51088,-6.70523 -8.36899,-3.55746 -19.97099,-4.19667 -20.41617,-1.12481 -0.2547,1.75746 34.01101,69.709214 37.6164,74.596464 2.97723,4.03574 8.89707,9.29255 13.13772,11.66626 2.47072,1.38299 9.46743,3.99381 11.76156,4.38883 1.46851,0.25285 4.21035,-0.33349 6.01833,-1.28702 z"
       id="path15-6" />
  </g>
</svg>
